<svg xmlns="http://www.w3.org/2000/svg" viewBox="0 0 1600 1000" role="img" aria-label="Project Settings channels placeholder">
  <rect width="1600" height="1000" fill="#0f1115"/>
  <rect x="110" y="96" width="1380" height="808" rx="14" fill="#191c22" stroke="#2a2f39" stroke-width="2"/>
  <rect x="110" y="96" width="1380" height="64" rx="14" fill="#22262f"/>
  <rect x="110" y="130" width="1380" height="30" fill="#22262f"/>
  <text x="150" y="136" fill="#c7ccd6" font-family="Arial,Helvetica,sans-serif" font-size="26" font-weight="600">Project Settings</text>
  <!-- left settings nav -->
  <rect x="110" y="160" width="330" height="744" fill="#15181e"/>
  <g font-family="Arial,Helvetica,sans-serif" font-size="24" fill="#7a8290">
    <text x="150" y="228">Audio</text><text x="150" y="288">Editor</text><text x="150" y="348">Graphics</text><text x="150" y="408">Input</text>
    <rect x="126" y="440" width="298" height="52" rx="8" fill="#26303a"/><text x="150" y="475" fill="#eaf2ff" font-weight="700">Better Logger</text>
    <text x="150" y="536">Physics</text><text x="150" y="596">Player</text><text x="150" y="656">Quality</text>
  </g>
  <!-- right panel: channels -->
  <text x="486" y="232" fill="#e9edf3" font-family="Arial,Helvetica,sans-serif" font-size="34" font-weight="700">Log Channels</text>
  <g font-family="Arial,Helvetica,sans-serif" font-size="27">
    <!-- row template: swatch, name, toggle -->
    <rect x="486" y="272" width="954" height="72" rx="10" fill="#12151b"/><rect x="512" y="296" width="34" height="34" rx="7" fill="#3ec46d"/><text x="566" y="318" fill="#dfe4ec">Gameplay</text><rect x="1310" y="292" width="86" height="42" rx="21" fill="#2b6b45"/><circle cx="1375" cy="313" r="16" fill="#eafff2"/>
    <rect x="486" y="356" width="954" height="72" rx="10" fill="#171b22"/><rect x="512" y="380" width="34" height="34" rx="7" fill="#4aa3ff"/><text x="566" y="402" fill="#dfe4ec">AI</text><rect x="1310" y="376" width="86" height="42" rx="21" fill="#25517d"/><circle cx="1375" cy="397" r="16" fill="#eafff2"/>
    <rect x="486" y="440" width="954" height="72" rx="10" fill="#12151b"/><rect x="512" y="464" width="34" height="34" rx="7" fill="#f0a021"/><text x="566" y="486" fill="#dfe4ec">Networking</text><rect x="1310" y="460" width="86" height="42" rx="21" fill="#3a3a3a"/><circle cx="1341" cy="481" r="16" fill="#cfd4dc"/>
    <rect x="486" y="524" width="954" height="72" rx="10" fill="#171b22"/><rect x="512" y="548" width="34" height="34" rx="7" fill="#dd1e4b"/><text x="566" y="570" fill="#dfe4ec">UI</text><rect x="1310" y="544" width="86" height="42" rx="21" fill="#7a2440"/><circle cx="1375" cy="565" r="16" fill="#eafff2"/>
    <rect x="486" y="608" width="954" height="72" rx="10" fill="#12151b"/><rect x="512" y="632" width="34" height="34" rx="7" fill="#9b6bff"/><text x="566" y="654" fill="#dfe4ec">Audio</text><rect x="1310" y="628" width="86" height="42" rx="21" fill="#4a3a75"/><circle cx="1375" cy="649" r="16" fill="#eafff2"/>
  </g>
  <rect x="486" y="704" width="240" height="60" rx="10" fill="#26303a" stroke="#3a4552"/><text x="606" y="742" fill="#cfe0f2" font-family="Arial,Helvetica,sans-serif" font-size="26" text-anchor="middle" font-weight="700">+ Add Channel</text>
  <g font-family="Arial,Helvetica,sans-serif"><rect x="1150" y="828" width="290" height="44" rx="22" fill="#000000" opacity="0.35"/><text x="1295" y="858" fill="#ffffff" font-size="22" text-anchor="middle" opacity="0.85">Settings page (placeholder)</text></g>
</svg>
