<svg xmlns="http://www.w3.org/2000/svg" viewBox="0 0 1600 1000" role="img" aria-label="ScriptableObject config placeholder">
  <rect width="1600" height="1000" fill="#0f1115"/>
  <rect x="110" y="96" width="1380" height="808" rx="14" fill="#191c22" stroke="#2a2f39" stroke-width="2"/>
  <rect x="110" y="96" width="1380" height="60" rx="14" fill="#22262f"/><rect x="110" y="126" width="1380" height="30" fill="#22262f"/>
  <text x="150" y="134" fill="#e9edf3" font-family="Arial,Helvetica,sans-serif" font-size="26" font-weight="700">Inspector — Settings Group (ScriptableObject)</text>
  <!-- inspector rows -->
  <g font-family="Arial,Helvetica,sans-serif" font-size="26">
    <text x="150" y="240" fill="#9aa0b4">Group Name</text><rect x="470" y="212" width="900" height="46" rx="6" fill="#262a3b" stroke="#3a3f52"/><text x="492" y="243" fill="#dfe4ec">Graphics</text>
    <text x="150" y="320" fill="#9aa0b4">Settings</text>
  </g>
  <!-- list of setting entries -->
  <g font-family="Arial,Helvetica,sans-serif" font-size="25">
    <rect x="150" y="346" width="1220" height="60" rx="8" fill="#12151d" stroke="#2a2f39"/><circle cx="186" cy="376" r="8" fill="#8b7bff"/><text x="214" y="385" fill="#dfe4ec">Resolution</text><rect x="1140" y="356" width="210" height="40" rx="8" fill="#262a3b"/><text x="1160" y="383" fill="#9aa0b4" font-size="21">Int / Resolution</text>
    <rect x="150" y="416" width="1220" height="60" rx="8" fill="#171b25" stroke="#2a2f39"/><circle cx="186" cy="446" r="8" fill="#8b7bff"/><text x="214" y="455" fill="#dfe4ec">Window Mode</text><rect x="1120" y="426" width="230" height="40" rx="8" fill="#262a3b"/><text x="1140" y="453" fill="#9aa0b4" font-size="21">Int / WindowMode</text>
    <rect x="150" y="486" width="1220" height="60" rx="8" fill="#12151d" stroke="#2a2f39"/><circle cx="186" cy="516" r="8" fill="#8b7bff"/><text x="214" y="525" fill="#dfe4ec">VSync</text><rect x="1230" y="496" width="120" height="40" rx="8" fill="#262a3b"/><text x="1250" y="523" fill="#9aa0b4" font-size="21">Bool</text>
    <rect x="150" y="556" width="1220" height="60" rx="8" fill="#171b25" stroke="#2a2f39"/><circle cx="186" cy="586" r="8" fill="#8b7bff"/><text x="214" y="595" fill="#dfe4ec">Quality Preset</text><rect x="1250" y="566" width="100" height="40" rx="8" fill="#262a3b"/><text x="1270" y="593" fill="#9aa0b4" font-size="21">Int</text>
    <rect x="150" y="626" width="1220" height="60" rx="8" fill="#12151d" stroke="#2a2f39"/><circle cx="186" cy="656" r="8" fill="#8b7bff"/><text x="214" y="665" fill="#dfe4ec">Field of View</text><rect x="1240" y="636" width="110" height="40" rx="8" fill="#262a3b"/><text x="1260" y="663" fill="#9aa0b4" font-size="21">Float</text>
  </g>
  <rect x="150" y="708" width="240" height="56" rx="8" fill="#8b7bff"/><text x="270" y="744" fill="#fff" font-family="Arial,Helvetica,sans-serif" font-size="25" text-anchor="middle" font-weight="700">+ Add Setting</text>
  <g font-family="Arial,Helvetica,sans-serif"><rect x="1120" y="828" width="270" height="44" rx="22" fill="#000000" opacity="0.4"/><text x="1255" y="858" fill="#fff" font-size="22" text-anchor="middle" opacity="0.85">Config asset (placeholder)</text></g>
</svg>
