<svg xmlns="http://www.w3.org/2000/svg" viewBox="0 0 1600 1000" role="img" aria-label="World-space debug shapes placeholder">
  <rect width="1600" height="1000" fill="#12161d"/>
  <!-- perspective ground grid -->
  <g stroke="#2a3646" stroke-width="2" opacity="0.8">
    <path d="M0 640 L1600 640"/><path d="M0 730 L1600 730"/><path d="M0 840 L1600 840"/><path d="M0 960 L1600 960"/>
    <path d="M420 620 L250 1000"/><path d="M700 620 L640 1000"/><path d="M980 620 L1000 1000"/><path d="M1240 620 L1420 1000"/>
  </g>
  <!-- simple world blocks -->
  <g fill="#1d2735" stroke="#33465c" stroke-width="2">
    <path d="M300 500 l150 -40 l0 180 l-150 40 z"/><path d="M1120 470 l150 -40 l0 200 l-150 40 z"/>
  </g>
  <!-- debug sphere -->
  <g stroke="#57e389" stroke-width="5" fill="none">
    <circle cx="560" cy="430" r="120"/><ellipse cx="560" cy="430" rx="120" ry="42"/><ellipse cx="560" cy="430" rx="42" ry="120"/>
  </g>
  <text x="560" y="270" fill="#57e389" font-family="Consolas,Menlo,monospace" font-size="30" text-anchor="middle">Sphere</text>
  <!-- debug cube -->
  <g stroke="#5ac8ff" stroke-width="5" fill="none">
    <path d="M900 470 l150 0 l0 150 l-150 0 z"/><path d="M975 410 l150 0 l0 150 l-150 0 z"/>
    <path d="M900 470 l75 -60 M1050 470 l75 -60 M1050 620 l75 -60 M900 620 l75 -60"/>
  </g>
  <!-- debug arrow -->
  <g stroke="#ff5ac8" stroke-width="7" fill="#ff5ac8">
    <path d="M1180 560 L1360 460" stroke-linecap="round"/><path d="M1360 460 l-52 5 l24 42 z"/>
  </g>
  <text x="1300" y="410" fill="#ffffff" font-family="Consolas,Menlo,monospace" font-size="30" text-anchor="middle">Target</text>
  <g font-family="Arial,Helvetica,sans-serif"><rect x="1180" y="900" width="360" height="46" rx="23" fill="#000000" opacity="0.45"/><text x="1360" y="931" fill="#fff" font-size="23" text-anchor="middle" opacity="0.9">World-space shapes (placeholder)</text></g>
</svg>
